# xmcd
#
# Track frame offsets:
#	150
#	10800
#	29577
#	49264
#	57915
#	63840
#	79475
#	100305
#	118465
#	128955
#	149332
#	165132
#	178260
#	196977
#	216507
#	234380
#	248937
#
# Disc length: 3543 seconds
#
# Revision: 0
# Processed by: cddbd v1.5.2PL0 Copyright (c) Steve Scherf et al.
# Submitted via: EasyCDDAExtractor 11.0.2.1
#
DISCID=fd0dd511
DTITLE=Various Artist - Collection Time
DYEAR=1998
DGENRE=Rap
TTITLE0=Evol - Be A Paperboy
TTITLE1=Heat - Save Me
TTITLE2=Woody Wood - Be Like Me
TTITLE3=Marc and Evol - Real All About It
TTITLE4=The Paper Cartel - The Club Scene
TTITLE5=Marc, Feddachunni and Alizae - Gators Represent
TTITLE6=Heat - When I Get G's
TTITLE7=Sin and Heat - My Neighborhood
TTITLE8=Alizae and Evol - Me And You
TTITLE9=Heat - Living On The Edge
TTITLE10=Heat - The Pain Is Deep
TTITLE11=Vitamin-E - When I Die
TTITLE12=John Doe, Sin and Whateverclever - Try So Hard Not To Cry
TTITLE13=Evol - Family
TTITLE14=Heat - Mafia Forever
TTITLE15=Evol and Miz Bitch - We
TTITLE16=Heat - Richess and Fame
EXTD=
EXTT0=
EXTT1=
EXTT2=
EXTT3=
EXTT4=
EXTT5=
EXTT6=
EXTT7=
EXTT8=
EXTT9=
EXTT10=
EXTT11=
EXTT12=
EXTT13=
EXTT14=
EXTT15=
EXTT16=
PLAYORDER=
